<svg preserveAspectRatio="none" overflow="visible" style="display: block;" width="36" height="36" viewBox="0 0 36 36" fill="none" xmlns="http://www.w3.org/2000/svg">
<g id="kpi-icon-container">
<rect width="36" height="36" rx="8" fill="#FFF5E7"/>
<path id="Vector" d="M20.6797 18.709L20.7998 19.0381H24.9434C24.6219 19.482 24.2751 19.9104 23.9189 20.3291L18.9814 25.9434L18.9678 25.959L18.9551 25.9756C18.828 26.1471 18.6759 26.2791 18.5127 26.3672C18.3501 26.4548 18.1777 26.4987 18.0068 26.5C17.8361 26.5012 17.664 26.46 17.501 26.375C17.3373 26.2896 17.1843 26.1604 17.0557 25.9912L17.0449 25.9766L17.0332 25.9639L12.0801 20.3291H12.0811C11.7243 19.9098 11.3774 19.4816 11.0557 19.0381H16.0801L16.1719 18.8203L17.5322 22.417L18.1035 23.9297L18.4854 22.3584L19.8945 16.5566L20.6797 18.709ZM21.0283 9.64551C21.8882 9.39958 22.7911 9.46648 23.6221 9.84082C24.455 10.2161 25.1855 10.8877 25.7051 11.7803C26.2247 12.6732 26.5044 13.7382 26.5 14.833V14.835C26.5 16.0365 26.1378 17.0808 25.5938 18.0381H21.499L20.2695 14.6641L19.7041 13.1133L19.3135 14.7178L17.8955 20.5508L16.667 17.3037L16.2266 16.1387L15.7393 17.2842L15.4189 18.0381H10.4043C9.86157 17.0837 9.5 16.0409 9.5 14.835L9.5127 14.4268C9.57391 13.4794 9.84735 12.5694 10.3027 11.791C10.823 10.9017 11.5524 10.2329 12.3838 9.8584C13.2131 9.48478 14.114 9.41712 14.9727 9.66016C15.833 9.90373 16.6244 10.4522 17.2344 11.25L17.2402 11.2578C17.3289 11.3693 17.4412 11.4644 17.5723 11.5312C17.7037 11.5982 17.8497 11.6348 18 11.6348C18.1503 11.6348 18.2963 11.5982 18.4277 11.5312C18.5588 11.4644 18.6711 11.3693 18.7598 11.2578L18.7666 11.248C19.3747 10.445 20.1667 9.89202 21.0283 9.64551Z" stroke="#F4A340" stroke-linecap="round"/>
</g>
</svg>
